<svg xmlns="http://www.w3.org/2000/svg" xmlns:xlink="http://www.w3.org/1999/xlink" width="1892" height="1892" viewBox="0 0 1892 1892">
  <defs>
    <radialGradient id="radial-gradient" cx="0.5" cy="0.5" r="0.76" gradientTransform="translate(-0.04 0.043) rotate(-4.731)" gradientUnits="objectBoundingBox">
      <stop offset="0"/>
      <stop offset="1" stop-color="#545454" stop-opacity="0"/>
    </radialGradient>
  </defs>
  <g id="Group_5" data-name="Group 5" transform="translate(-8043 -12942)">
    <path id="Path_3" data-name="Path 3" d="M946,0c522.462,0,946,423.54,946,946s-423.54,946-946,946S0,1468.468,0,946,423.54,0,946,0Z" transform="translate(8043 12942)" fill="url(#radial-gradient)"/>
    <g id="Group_4" data-name="Group 4" transform="translate(749 -865)">
      <g id="Group_1" data-name="Group 1" transform="translate(8184.843 14682)">
        <g id="Group_10885" data-name="Group 10885" transform="translate(0 0)">
          <g id="Group_10883" data-name="Group 10883" transform="translate(0)">
            <g id="Group_1-2" data-name="Group 1">
              <path id="Path_1" data-name="Path 1" d="M1390.217,859.032H1355.1a95.771,95.771,0,0,1,25.012,31.045,94.33,94.33,0,0,1,7.474,20.379,95.4,95.4,0,0,1,2.629,22.265v1.323h-21.179v-1.323a73.4,73.4,0,0,0-16.415-46.349v.062c-.034.178-.065.357-.1.535v.022l-.111.557v.037c-.028.146-.059.291-.089.434s-.075.347-.115.524-.056.257-.089.384-.058.257-.089.384l-.081.331-.019.074q-.089.374-.189.746l-.2.765c-.065.238-.133.48-.2.718a1.086,1.086,0,0,1-.035.112c-.044.161-.093.31-.142.483l-.084.279v.045c-.143.461-.288.929-.44,1.378a.118.118,0,0,1,0,.025c-.064.2-.133.4-.2.592l-.075.211c-.077.226-.158.449-.238.672-.272.746-.561,1.493-.861,2.224s-.638,1.5-.975,2.239a58.273,58.273,0,0,1-52.906,33.842h-1.322V912.87h1.323a37.077,37.077,0,0,0,36.591-31.1v-.035c.109-.663.2-1.348.273-2.038v-.065a37.578,37.578,0,0,0,0-7.659c-.074-.713-.167-1.418-.278-2.1q-.1-.62-.22-1.239l-.684-.384-.666-.365-.548-.312-.186-.1-.62-.328a73.449,73.449,0,0,0-10.695-4.469q-2.655-.87-5.371-1.548a74.025,74.025,0,0,0-17.594-2.113h-1.323V837.837h96.193Z" transform="translate(-1294.054 -837.837)" fill="#fff"/>
            </g>
            <g id="Group_2" data-name="Group 2" transform="translate(37.744 30.782)">
              <path id="Path_2" data-name="Path 2" d="M1599.742,1088.045v.062c-.034.178-.065.356-.1.535v.021l-.111.554v.037c-.028.146-.059.292-.093.434s-.075.347-.115.523-.056.257-.086.384-.059.257-.089.384l-.081.332-.018.075q-.089.371-.19.746l-.2.765c-.065.239-.133.48-.2.719a.315.315,0,0,1-.034.111c-.044.161-.093.312-.143.483l-.084.278v.045c-.14.461-.288.93-.44,1.378v.025c-.065.2-.134.4-.2.595l-.071.211c-.078.226-.158.449-.239.672-.273.746-.561,1.5-.861,2.224l-.929,2.289-.034-.049-1.347-2.005a62.558,62.558,0,0,0-11.15-12.559c-1.053-.9-2.167-1.794-3.292-2.639l-.641-.48.121-.761v-.031c.108-.663.2-1.347.273-2.038v-.065a37.548,37.548,0,0,0,0-7.66c-.074-.713-.167-1.418-.278-2.1q-.1-.619-.22-1.239l.514.312c.276.158.551.312.824.483a73.516,73.516,0,0,1,7.433,5.07q.911.705,1.8,1.44.53.44,1.053.886c1.44,1.239,2.852,2.546,4.2,3.9,1.118,1.122,2.212,2.292,3.249,3.479Q1598.815,1086.931,1599.742,1088.045Z" transform="translate(-1578.885 -1070.301)" fill="#afafaf"/>
            </g>
          </g>
        </g>
      </g>
      <text id="WEBSITE_APPS_BRANDING" data-name="WEBSITE | APPS | BRANDING" transform="translate(8126 14820)" fill="#bdbdbd" font-size="18" font-family="SegoeUI, Segoe UI"><tspan x="0" y="0">WEBSITE | APPS | BRANDING</tspan></text>
    </g>
  </g>
</svg>
